/* XPM */
static char *result[] = {
/* columns rows colors chars-per-pixel */
"16 16 6 1 ",
"  c #25131A",
". c #362030",
"X c #3D253B",
"o c #C09344",
"O c #FFD569",
"+ c #FFF1CC",
/* pixels */
"...........X.XXX",
"XXXXXXX.XXXXXXXX",
"XXXXXXX.XXXXXXXX",
"XXXXXXX.X  XXXXX",
"XXXXXXXX +o XXXX",
"XX      o  o XXX",
"XX ooooooX o XX.",
"XX ++O  +X o XXX",
"XX + OX OX O XX.",
"XX OX XX OO XXX.",
"XXX XXXXX  XXXX.",
".XXXXXXXXXXXXXX.",
".XXXXXXXXXXXXXX.",
".XXXXXXXXXXXXXX.",
"................",
"                "
};
