/* XPM */
static char *_37e76213edf43ddd239468dca33e921EBFO1QPRzqrjPCyP[] = {
/* columns rows colors chars-per-pixel */
"16 16 4 1 ",
"  c #362030",
". c #3D253B",
"X c #25131A",
"o c white",
/* pixels */
"           . ...",
"....... ........",
"....... ........",
"....... ........",
"................",
"................",
"............... ",
"................",
"............... ",
"............... ",
"............... ",
" .............. ",
" .............. ",
" .............. ",
"                ",
"XXXXXXXXXXXXXXXX"
};
