/* XPM */
static char *result[] = {
/* columns rows colors chars-per-pixel */
"16 16 12 1 ",
"  c #25131A",
". c #362030",
"X c #3D253B",
"o c #373737",
"O c #606060",
"+ c #895A45",
"@ c #BF704D",
"# c #C48C64",
"$ c #E1A171",
"% c #90919E",
"& c #ADC1CF",
"* c #CAE6F5",
/* pixels */
".....      X.XXX",
"XXXX oooooo XXXX",
"XX   ++@@%@   XX",
"X oooooooooooo X",
"XX  OOO#*$#*  XX",
"XXX OO###$## XXX",
"XXXX  #$$$$$ XX.",
"XXXX @ #$$$ XXXX",
"XXX   @@ &   XX.",
"XX o oo %%&o XX.",
"XX + ooo &  + X.",
".X   ++@ &    X.",
".XXX ooo oo XXX.",
".XX ooo @ o XXX.",
"... ooo + oo ...",
"                "
};
