/* XPM */
static char *result[] = {
/* columns rows colors chars-per-pixel */
"16 16 10 1 ",
"  c #25131A",
". c #362030",
"X c #3C243A",
"o c #3C253A",
"O c #3D253B",
"+ c #262B44",
"@ c #3C4258",
"# c #6C7C9D",
"$ c #8E9AB4",
"% c #C0CBDC",
/* pixels */
"...........O.OOO",
"XOOOOOO+++OOOOOO",
"OOOOO++$$$+OOOOO",
"XOOo+$$$$$$+OOOO",
"OOO+$$$%$$@+OOOO",
"OOO+$%%#@@@+++OO",
"OOO+$####@+$$$+.",
"OOO+####@+$$$%+O",
"OOX+++##@+$$%@+.",
"OO+$$$+#@+$#@@+.",
"O+$%$$++++###@+.",
".+%##@+$$$+##@+.",
".+###+$$%#+#@@+.",
".+##@+$##@+@@@+.",
"..@@@+##@@+@@@..",
"      @@@@      "
};
